<?xml version="1.0" encoding="utf-8"?>
<!-- Generator: Adobe Illustrator 26.0.3, SVG Export Plug-In . SVG Version: 6.00 Build 0)  -->
<svg version="1.1" id="Layer_1" xmlns="http://www.w3.org/2000/svg" xmlns:xlink="http://www.w3.org/1999/xlink" x="0px" y="0px"
	 viewBox="0 0 549.9 573" style="enable-background:new 0 0 549.9 573;" xml:space="preserve">
<g>
	<path d="M149.2,437.4c0,0,83.3-58.8,160.5-136.1c77.2-77.2,235-271.7,235-271.7c6.8-6.8,6.9-17.8,0.1-24.6
		c-6.8-6.7-17.8-6.7-24.6,0.1c0,0-194.4,157.7-271.7,235c-77.2,77.2-136.1,160.5-136.1,160.5L149.2,437.4z"/>
	<path d="M13,461.8C-22.2,506,25.3,573,25.3,573s19.5-52.8,43.2-55.6c27.7-3.2,44.9-7.8,58.3-21.3c17.3-17.3,9.6-46.7,9.6-46.7
		l-37.1-37.1C99.5,412.3,56.8,406.7,13,461.8L13,461.8z"/>
</g>
</svg>
