<?xml version="1.0" encoding="utf-8"?>
<!-- Generator: Adobe Illustrator 26.0.3, SVG Export Plug-In . SVG Version: 6.00 Build 0)  -->
<svg version="1.1" id="Layer_1" xmlns="http://www.w3.org/2000/svg" xmlns:xlink="http://www.w3.org/1999/xlink" x="0px" y="0px"
	 viewBox="0 0 429.3 493.4" style="enable-background:new 0 0 429.3 493.4;" xml:space="preserve">
<g>
	<path d="M428.4,96.6L333,1c-1.4-1.4-3.7-1.4-5,0L85.6,244.1c-4.3,4.3-7.5,9.7-9.3,15.6L38,388.2c-0.8,2.7,1.7,5.2,4.4,4.4
		l128.1-38.5c5.9-1.8,11.3-4.9,15.6-9.3l242.3-243.3C429.6,100.2,429.6,97.9,428.4,96.6L428.4,96.6z M102,351.9l-23.5-23.5l19-63.9
		l68,68.2L102,351.9z"/>
	<path d="M420.6,469.1c-48.3-23.6-112-38.8-174.8-41.6c-70.3-3.3-132,9.6-174.1,36c-21.4,13.5-35.5-0.3-39.4-4.8
		c-9.2-11-12.8-29.6,0.8-44.9c4.4-4.9,4-12.6-0.9-17.1c-4.9-4.4-12.6-4-17.1,0.9c-22.3,24.9-17.6,57.4-1.4,76.7
		c9.4,11.2,23.7,19.1,40.1,19.1c9.7,0,20-2.8,30.6-9.4c81.2-51.2,233.9-37.8,325.5,6.9c6,3,13.2,0.4,16.1-5.6
		C429,479.4,426.5,472.1,420.6,469.1L420.6,469.1z"/>
</g>
</svg>
