<?xml version="1.0" encoding="utf-8"?>
<!-- Generator: Adobe Illustrator 26.0.3, SVG Export Plug-In . SVG Version: 6.00 Build 0)  -->
<svg version="1.1" id="Layer_1" xmlns="http://www.w3.org/2000/svg" xmlns:xlink="http://www.w3.org/1999/xlink" x="0px" y="0px"
	 viewBox="0 0 531.8 530.6" style="enable-background:new 0 0 531.8 530.6;" xml:space="preserve">
<path d="M525.1,70.3C516.7,58,506.7,46.2,495.5,35c-10.1-9.5-24.6-20.7-34.7-27.4C443.9-4.2,421-1.9,407,12.1L50.3,368.2
	c-1.1,1.1-2.2,2.8-2.8,4.5L1,504.9c-2.2,7.3-0.6,15.1,4.5,20.2c3.9,3.9,8.4,5.6,13.4,5.6c2.2,0,4.5-0.6,6.7-1.1L157.2,483
	c1.7-0.6,3.4-1.7,4.5-2.8L519,122.9C533.5,108.9,535.8,86.5,525.1,70.3L525.1,70.3z M69.3,384.5c30.2,20.7,56,46.5,76.7,76.7
	l-76.7,26.9c-2.8-5.6-6.2-11.2-11.2-16.2c-5-5-10.6-8.4-16.2-11.2L69.3,384.5z"/>
</svg>
