<?xml version="1.0" encoding="utf-8"?>
<!-- Generator: Adobe Illustrator 26.0.3, SVG Export Plug-In . SVG Version: 6.00 Build 0)  -->
<svg version="1.1" id="Layer_1" xmlns="http://www.w3.org/2000/svg" xmlns:xlink="http://www.w3.org/1999/xlink" x="0px" y="0px"
	 viewBox="0 0 425.7 425.5" style="enable-background:new 0 0 425.7 425.5;" xml:space="preserve">
<g>
	<path d="M425.7,208.4c-1-43.5-15.1-86-39.8-119.5c-8-10.8-15.1-19.3-22.6-26.8l-0.3-0.3c-31.3-30.9-71.3-51.7-112.8-58.5
		c-13.4-2.2-26-3.3-38.1-3.3c-8.3,0-16.4,0.5-24.3,1.6c-13.7,1.8-24.6,3.9-34.4,6.7c-10,2.9-20.5,7-32.1,12.3
		c-19,8.8-37.1,21.1-53.9,36.7C51.6,72,37.7,89.7,27.2,108.5c-21,37.6-30.4,81.2-26.3,122.7c2.2,23,7.4,43.9,15.9,64
		c8.8,20.9,20.4,39.5,35.5,57.1c28.2,32.8,67,56.6,109.2,66.9c41.9,10.2,86.2,7.8,124.7-6.8c12.1-4.6,22.4-9.3,31.4-14.5
		c9.1-5.1,18.1-11.3,29.2-20.1c16.5-13.1,31.4-29.5,44.2-48.8C414.4,294.1,426.7,251.2,425.7,208.4L425.7,208.4z M381,235.7
		L381,235.7c-2.2,14.5-6.1,28.6-11.4,42.1l0,0.1c-6,13.6-13.4,26.4-22.1,38.1l-0.1,0.1c-9.1,11.4-19.6,21.9-31,31l-0.1,0.1
		c-11.9,8.9-24.8,16.3-38.3,22.3l-0.1,0c-13.5,5.3-27.6,9.2-42,11.4l-0.1,0c-7.6,0.9-15.3,1.3-23,1.3c-7.7,0-15.3-0.4-23-1.3l-0.1,0
		c-14.4-2.2-28.5-6-42-11.4l-0.1,0c-13.6-6-26.4-13.4-38.1-22.1l-0.1-0.1c-11.4-9.1-21.9-19.6-31-31l-0.1-0.1
		c-8.9-11.9-16.3-24.8-22.3-38.3l0-0.1c-5.3-13.5-9.2-27.6-11.4-42l0-0.1c-1.8-15.2-1.8-30.7,0-45.9l0-0.1c2.2-14.4,6-28.5,11.4-42
		l0-0.1c6-13.6,13.4-26.4,22.1-38.1l0.1-0.1c9.1-11.4,19.6-21.9,31-31l0.1-0.1c11.9-8.9,24.8-16.3,38.3-22.3l0.1,0
		c13.5-5.3,27.6-9.2,42-11.4l0.1,0c15.2-1.8,30.7-1.8,45.9,0l0.1,0c14.4,2.2,28.5,6,42,11.4l0.1,0c13.6,6,26.5,13.4,38.2,22.2
		c5.8,4.6,11.3,9.6,16.4,14.7c5,5,9.8,10.4,14.6,16.3l0.1,0.1c8.8,11.9,16.3,24.8,22.2,38.2l0,0.1c5.3,13.5,9.2,27.6,11.4,42l0,0.1
		C382.7,205,382.7,220.4,381,235.7z"/>
	<path d="M152.5,188.3c8.1,0,16.1-3.3,22.4-9.2c4.8-4.5,7.9-10.7,9-18l0-0.2c0.3-1.5,0.5-3,0.4-4.5l0-0.1l0-0.1
		c0-1.2-0.1-2.5-0.3-3.9l0-0.1c-1.1-7.5-4.2-14-9.1-18.6c-6.3-5.9-14.2-9.2-22.3-9.2c-17.3,0-31.8,14.6-31.8,31.8
		C120.6,173.7,135.2,188.3,152.5,188.3z"/>
	<path d="M273.3,188.9c8.1,0,16.1-3.3,22.4-9.2c4.8-4.5,7.9-10.7,9-18l0-0.2c0.3-1.5,0.5-3,0.4-4.5l0-0.1l0-0.1
		c0-1.2-0.1-2.5-0.3-3.9l0-0.1c-1.1-7.5-4.2-14-9.1-18.6c-6.3-5.9-14.2-9.2-22.3-9.2c-17.3,0-31.8,14.6-31.8,31.8
		S256,188.9,273.3,188.9z"/>
	<path d="M296.2,244.9c-3.4-1.8-10.1-4.4-16.7-2.3c-3.5,1.2-9.8,4-12.9,10c-1.8,3.5-3.8,6.8-6.2,10.2l-0.1,0.2
		c-3.3,3.9-6.9,7.5-10.7,10.7l-0.2,0.1c-4.1,2.9-8.6,5.5-13.2,7.7l-0.2,0.1c-4.8,1.8-9.8,3.2-14.9,4.1l-0.2,0
		c-5.3,0.5-10.7,0.5-16,0l-0.2,0c-5.1-0.9-10.1-2.3-14.9-4.1l-0.2-0.1c-4.6-2.1-9-4.7-13.1-7.6l-0.2-0.1c-3.9-3.3-7.5-6.8-10.7-10.7
		l-0.1-0.2c-2.3-3.3-4.5-6.7-6.3-10.3c-2.3-4.4-7.6-8.4-12.9-9.9c-1.8-0.5-3.8-0.7-5.7-0.7c-4,0-8,1-10.9,2.8
		c-3.1,2-8.6,6.4-10,12.9c-1.4,5.9-0.6,11.5,2.2,16.9c13.5,25.9,39.4,45.8,67.6,52c27.7,6.1,56.5,1.2,78.8-13.4
		c15.5-10.1,27.8-23.5,35.8-38.6c2.9-5.6,3.7-11.5,2.2-16.8C304.7,252.5,300.6,247.2,296.2,244.9z"/>
</g>
</svg>
