<?xml version="1.0" encoding="utf-8"?>
<!-- Generator: Adobe Illustrator 26.0.3, SVG Export Plug-In . SVG Version: 6.00 Build 0)  -->
<svg version="1.1" id="Layer_1" xmlns="http://www.w3.org/2000/svg" xmlns:xlink="http://www.w3.org/1999/xlink" x="0px" y="0px"
	 viewBox="0 0 543.6 543.3" style="enable-background:new 0 0 543.6 543.3;" xml:space="preserve">
<path d="M526.2,213c11.1-10.5,17.5-25.2,17.5-40.5c0-15.3-6.3-30-17.5-40.5L410.4,16.3C399.5,5.8,385,0,369.9,0
	c-15.1,0-29.6,5.8-40.5,16.3l-283,283.3c-10.7,10.7-16.7,25.3-16.7,40.5c0,15.2,6,29.7,16.7,40.5l115.5,115.8l6.7,5.3H20.9
	C9.3,501.6,0,510.9,0,522.4c0,11.5,9.3,20.9,20.9,20.9h413.5c11.5,0,20.9-9.3,20.9-20.9c0-11.5-9.3-20.9-20.9-20.9H236.8l6.7-5.3
	L526.2,213z M76.5,350.7c-6-6.1-6-15.9,0-22l141.1-140.5l137.2,136.6L213.7,466.5c-6.1,5.9-15.8,5.9-22,0L76.5,350.7z"/>
</svg>
