<?xml version="1.0" encoding="utf-8"?>
<!-- Generator: Adobe Illustrator 26.0.3, SVG Export Plug-In . SVG Version: 6.00 Build 0)  -->
<svg version="1.1" id="Layer_1" xmlns="http://www.w3.org/2000/svg" xmlns:xlink="http://www.w3.org/1999/xlink" x="0px" y="0px"
	 viewBox="0 0 360.7 415" style="enable-background:new 0 0 360.7 415;" xml:space="preserve">
<path d="M200,413.9c83.2-9.1,149.9-75.8,159.5-159c12.8-109.2-71.7-202-178.2-202.9V3.1c0-2.7-3.2-4.1-5.5-2.3L75.2,74.4
	c-1.8,1.4-1.8,3.7,0,5l100.5,74c2.3,1.8,5.5,0,5.5-2.3l0-49.3c74.5,1.4,134.3,64.4,129.3,140.3C306,307.4,253,360,188.1,364.5
	c-69,4.6-127.9-44.8-138.4-110.1c-1.8-12.3-12.3-21-24.7-21c-15.1,0-27,13.7-24.7,28.3C14.9,354.9,100.8,424.9,200,413.9L200,413.9z
	"/>
</svg>
